<?xml version="1.0" encoding="UTF-8" standalone="no"?>
<!DOCTYPE svg PUBLIC "-//W3C//DTD SVG 1.1//EN"
 "http://www.w3.org/Graphics/SVG/1.1/DTD/svg11.dtd">
<!-- Generated by graphviz version 2.31.20130210.0545 (20130210.0545)
 -->
<!-- Title: G Pages: 1 -->
<svg width="369pt" height="2154pt"
 viewBox="0.00 0.00 369.00 2154.00" xmlns="http://www.w3.org/2000/svg" xmlns:xlink="http://www.w3.org/1999/xlink">
<g id="graph0" class="graph" transform="scale(1 1) rotate(0) translate(4 2150)">
<title>G</title>
<polygon fill="white" stroke="white" points="-4,5 -4,-2150 366,-2150 366,5 -4,5"/>
<g id="clust1" class="cluster"><title>cluster_forest</title>
<path fill="none" stroke="gray" d="M20,-394C20,-394 341,-394 341,-394 347,-394 353,-400 353,-406 353,-406 353,-2126 353,-2126 353,-2132 347,-2138 341,-2138 341,-2138 20,-2138 20,-2138 14,-2138 8,-2132 8,-2126 8,-2126 8,-406 8,-406 8,-400 14,-394 20,-394"/>
<text text-anchor="middle" x="180.5" y="-2125.2" font-family="Times,serif" font-size="11.00" fill="gray">forest</text>
</g>
<g id="clust2" class="cluster"><title>cluster_forest\attribute</title>
<path fill="none" stroke="gray" d="M28,-1092C28,-1092 333,-1092 333,-1092 339,-1092 345,-1098 345,-1104 345,-1104 345,-2098 345,-2098 345,-2104 339,-2110 333,-2110 333,-2110 28,-2110 28,-2110 22,-2110 16,-2104 16,-2098 16,-2098 16,-1104 16,-1104 16,-1098 22,-1092 28,-1092"/>
<text text-anchor="middle" x="180.5" y="-2097.2" font-family="Times,serif" font-size="11.00" fill="gray">attribute</text>
</g>
<g id="clust3" class="cluster"><title>cluster_forest\attribute\template</title>
<path fill="none" stroke="gray" d="M36,-1848C36,-1848 313,-1848 313,-1848 319,-1848 325,-1854 325,-1860 325,-1860 325,-2070 325,-2070 325,-2076 319,-2082 313,-2082 313,-2082 36,-2082 36,-2082 30,-2082 24,-2076 24,-2070 24,-2070 24,-1860 24,-1860 24,-1854 30,-1848 36,-1848"/>
<text text-anchor="middle" x="174.5" y="-2069.2" font-family="Times,serif" font-size="11.00" fill="gray">template</text>
</g>
<g id="clust5" class="cluster"><title>cluster_forest\form</title>
<path fill="none" stroke="gray" d="M37,-608C37,-608 314,-608 314,-608 320,-608 326,-614 326,-620 326,-620 326,-1072 326,-1072 326,-1078 320,-1084 314,-1084 314,-1084 37,-1084 37,-1084 31,-1084 25,-1078 25,-1072 25,-1072 25,-620 25,-620 25,-614 31,-608 37,-608"/>
<text text-anchor="middle" x="175.5" y="-1071.2" font-family="Times,serif" font-size="11.00" fill="gray">form</text>
</g>
<g id="clust6" class="cluster"><title>cluster_forest\form\control</title>
<path fill="none" stroke="gray" d="M242,-616C242,-616 306,-616 306,-616 312,-616 318,-622 318,-628 318,-628 318,-730 318,-730 318,-736 312,-742 306,-742 306,-742 242,-742 242,-742 236,-742 230,-736 230,-730 230,-730 230,-628 230,-628 230,-622 236,-616 242,-616"/>
<text text-anchor="middle" x="274" y="-729.2" font-family="Times,serif" font-size="11.00" fill="gray">control</text>
</g>
<g id="clust7" class="cluster"><title>cluster_forest\form\template</title>
<path fill="none" stroke="gray" d="M45,-850C45,-850 123,-850 123,-850 129,-850 135,-856 135,-862 135,-862 135,-964 135,-964 135,-970 129,-976 123,-976 123,-976 45,-976 45,-976 39,-976 33,-970 33,-964 33,-964 33,-862 33,-862 33,-856 39,-850 45,-850"/>
<text text-anchor="middle" x="84" y="-963.2" font-family="Times,serif" font-size="11.00" fill="gray">template</text>
</g>
<g id="clust9" class="cluster"><title>cluster_global</title>
<path fill="none" stroke="gray" d="M42,-44C42,-44 312,-44 312,-44 318,-44 324,-50 324,-56 324,-56 324,-374 324,-374 324,-380 318,-386 312,-386 312,-386 42,-386 42,-386 36,-386 30,-380 30,-374 30,-374 30,-56 30,-56 30,-50 36,-44 42,-44"/>
<text text-anchor="middle" x="177" y="-373.2" font-family="Times,serif" font-size="11.00" fill="gray">global</text>
</g>
<!-- \\forest\\attribute\\template\\Piu2_3Coll -->
<g id="node1" class="node"><title>\\forest\\attribute\\template\\Piu2_3Coll</title>
<g id="a_node1"><a xlink:href="forest.attribute.template.piu2_3coll.html" xlink:title="«abstract»&lt;br/&gt;Piu2_3Coll" target="_parent">
<polygon fill="none" stroke="black" points="316.5,-2054 231.5,-2054 231.5,-2018 316.5,-2018 316.5,-2054"/>
<text text-anchor="start" x="240" y="-2039.7" font-family="Courier,monospace" font-size="11.00">«abstract»</text>
<text text-anchor="start" x="240" y="-2028.7" font-family="Courier,monospace" font-size="11.00">Piu2_3Coll</text>
</a>
</g>
</g>
<!-- \\ContentColl -->
<g id="node41" class="node"><title>\\ContentColl</title>
<g id="a_node41"><a xlink:href="core.contentcoll.html" xlink:title="«abstract»&lt;br/&gt;ContentColl" target="_parent">
<polygon fill="none" stroke="black" points="130,-358 38,-358 38,-322 130,-322 130,-358"/>
<text text-anchor="start" x="50" y="-343.7" font-family="Courier,monospace" font-size="11.00">«abstract»</text>
<text text-anchor="start" x="46.5" y="-332.7" font-family="Courier,monospace" font-size="11.00">ContentColl</text>
</a>
</g>
</g>
<!-- \\forest\\attribute\\template\\Piu2_3Coll&#45;&gt;\\ContentColl -->
<g id="edge29" class="edge"><title>\\forest\\attribute\\template\\Piu2_3Coll&#45;&gt;\\ContentColl</title>
<path fill="none" stroke="black" d="M231.421,-2025.41C223.464,-2021.52 216.051,-2016.21 211,-2009 136.73,-1902.95 149.872,-975.012 139,-846 123.656,-663.921 97.8576,-445.768 88.5131,-368.681"/>
<polygon fill="none" stroke="black" points="91.9387,-367.856 87.257,-358.352 84.9899,-368.701 91.9387,-367.856"/>
</g>
<!-- \\forest\\attribute\\template\\AttributeColl -->
<g id="node6" class="node"><title>\\forest\\attribute\\template\\AttributeColl</title>
<g id="a_node6"><a xlink:href="forest.attribute.template.attributecoll.html" xlink:title="AttributeColl" target="_parent">
<polygon fill="none" stroke="black" points="136,-1946 32,-1946 32,-1910 136,-1910 136,-1946"/>
<text text-anchor="middle" x="84" y="-1925.2" font-family="Courier,monospace" font-size="11.00">AttributeColl</text>
</a>
</g>
</g>
<!-- \\forest\\attribute\\template\\Piu2_3Coll&#45;&gt;\\forest\\attribute\\template\\AttributeColl -->
<g id="edge43" class="edge"><title>\\forest\\attribute\\template\\Piu2_3Coll&#45;&gt;\\forest\\attribute\\template\\AttributeColl</title>
<path fill="none" stroke="black" stroke-dasharray="1,5" d="M231.207,-2018.9C224.365,-2015.79 217.419,-2012.43 211,-2009 178.588,-1991.67 143.559,-1968.79 118.682,-1951.76"/>
<polygon fill="none" stroke="black" points="120.548,-1948.8 110.328,-1946 116.575,-1954.56 120.548,-1948.8"/>
</g>
<!-- \\forest\\attribute\\template\\Piu1_3 -->
<g id="node2" class="node"><title>\\forest\\attribute\\template\\Piu1_3</title>
<g id="a_node2"><a xlink:href="forest.attribute.template.piu1_3.html" xlink:title="«abstract»&lt;br/&gt;Piu1_3" target="_parent">
<polygon fill="none" stroke="black" points="316.5,-1946 231.5,-1946 231.5,-1910 316.5,-1910 316.5,-1946"/>
<text text-anchor="start" x="240" y="-1931.7" font-family="Courier,monospace" font-size="11.00">«abstract»</text>
<text text-anchor="start" x="253.5" y="-1920.7" font-family="Courier,monospace" font-size="11.00">Piu1_3</text>
</a>
</g>
</g>
<!-- \\Content -->
<g id="node36" class="node"><title>\\Content</title>
<g id="a_node36"><a xlink:href="core.content.html" xlink:title="«abstract»&lt;br/&gt;Content" target="_parent">
<polygon fill="none" stroke="black" points="126.5,-304 41.5,-304 41.5,-268 126.5,-268 126.5,-304"/>
<text text-anchor="start" x="50" y="-289.7" font-family="Courier,monospace" font-size="11.00">«abstract»</text>
<text text-anchor="start" x="60" y="-278.7" font-family="Courier,monospace" font-size="11.00">Content</text>
</a>
</g>
</g>
<!-- \\forest\\attribute\\template\\Piu1_3&#45;&gt;\\Content -->
<g id="edge30" class="edge"><title>\\forest\\attribute\\template\\Piu1_3&#45;&gt;\\Content</title>
<path fill="none" stroke="black" d="M231.332,-1917.47C223.38,-1913.57 215.991,-1908.25 211,-1901 10.7545,-1609.99 331.475,-609.21 139,-313 137.701,-311 136.206,-309.143 134.561,-307.418"/>
<polygon fill="none" stroke="black" points="136.434,-304.421 126.522,-300.677 131.935,-309.785 136.434,-304.421"/>
</g>
<!-- \\forest\\attribute\\template\\Attribute -->
<g id="node5" class="node"><title>\\forest\\attribute\\template\\Attribute</title>
<g id="a_node5"><a xlink:href="forest.attribute.template.attribute.html" xlink:title="Attribute" target="_parent">
<polygon fill="none" stroke="black" points="122.5,-1892 45.5,-1892 45.5,-1856 122.5,-1856 122.5,-1892"/>
<text text-anchor="middle" x="84" y="-1871.2" font-family="Courier,monospace" font-size="11.00">Attribute</text>
</a>
</g>
</g>
<!-- \\forest\\attribute\\template\\Piu1_3&#45;&gt;\\forest\\attribute\\template\\Attribute -->
<g id="edge44" class="edge"><title>\\forest\\attribute\\template\\Piu1_3&#45;&gt;\\forest\\attribute\\template\\Attribute</title>
<path fill="none" stroke="black" stroke-dasharray="1,5" d="M231.277,-1916.02C202.12,-1907.64 163.124,-1896.44 132.728,-1887.71"/>
<polygon fill="none" stroke="black" points="133.354,-1884.25 122.776,-1884.85 131.421,-1890.98 133.354,-1884.25"/>
</g>
<!-- \\forest\\attribute\\template\\Piu2_3 -->
<g id="node3" class="node"><title>\\forest\\attribute\\template\\Piu2_3</title>
<g id="a_node3"><a xlink:href="forest.attribute.template.piu2_3.html" xlink:title="«abstract»&lt;br/&gt;Piu2_3" target="_parent">
<polygon fill="none" stroke="black" points="316.5,-1892 231.5,-1892 231.5,-1856 316.5,-1856 316.5,-1892"/>
<text text-anchor="start" x="240" y="-1877.7" font-family="Courier,monospace" font-size="11.00">«abstract»</text>
<text text-anchor="start" x="253.5" y="-1866.7" font-family="Courier,monospace" font-size="11.00">Piu2_3</text>
</a>
</g>
</g>
<!-- \\forest\\attribute\\template\\Piu2_3&#45;&gt;\\Content -->
<g id="edge31" class="edge"><title>\\forest\\attribute\\template\\Piu2_3&#45;&gt;\\Content</title>
<path fill="none" stroke="black" d="M231.182,-1866.74C223.341,-1863.49 216.036,-1858.79 211,-1852 7.00746,-1577.03 325.755,-599.954 139,-313 137.699,-311.001 136.203,-309.145 134.557,-307.421"/>
<polygon fill="none" stroke="black" points="136.428,-304.422 126.516,-300.681 131.932,-309.787 136.428,-304.422"/>
</g>
<!-- \\forest\\attribute\\template\\Piu2_3&#45;&gt;\\forest\\attribute\\template\\Attribute -->
<g id="edge45" class="edge"><title>\\forest\\attribute\\template\\Piu2_3&#45;&gt;\\forest\\attribute\\template\\Attribute</title>
<path fill="none" stroke="black" stroke-dasharray="1,5" d="M231.277,-1874C202.247,-1874 163.463,-1874 133.125,-1874"/>
<polygon fill="none" stroke="black" points="132.776,-1870.5 122.776,-1874 132.776,-1877.5 132.776,-1870.5"/>
</g>
<!-- \\forest\\attribute\\template\\Piu1_3Coll -->
<g id="node4" class="node"><title>\\forest\\attribute\\template\\Piu1_3Coll</title>
<g id="a_node4"><a xlink:href="forest.attribute.template.piu1_3coll.html" xlink:title="«abstract»&lt;br/&gt;Piu1_3Coll" target="_parent">
<polygon fill="none" stroke="black" points="316.5,-2000 231.5,-2000 231.5,-1964 316.5,-1964 316.5,-2000"/>
<text text-anchor="start" x="240" y="-1985.7" font-family="Courier,monospace" font-size="11.00">«abstract»</text>
<text text-anchor="start" x="240" y="-1974.7" font-family="Courier,monospace" font-size="11.00">Piu1_3Coll</text>
</a>
</g>
</g>
<!-- \\forest\\attribute\\template\\Piu1_3Coll&#45;&gt;\\ContentColl -->
<g id="edge32" class="edge"><title>\\forest\\attribute\\template\\Piu1_3Coll&#45;&gt;\\ContentColl</title>
<path fill="none" stroke="black" d="M231.438,-1971.4C223.479,-1967.51 216.062,-1962.2 211,-1955 140.013,-1853.96 149.554,-969.03 139,-846 123.382,-663.944 97.7526,-445.777 88.4829,-368.683"/>
<polygon fill="none" stroke="black" points="91.9094,-367.862 87.2371,-358.353 84.9597,-368.701 91.9094,-367.862"/>
</g>
<!-- \\forest\\attribute\\template\\Piu1_3Coll&#45;&gt;\\forest\\attribute\\template\\AttributeColl -->
<g id="edge46" class="edge"><title>\\forest\\attribute\\template\\Piu1_3Coll&#45;&gt;\\forest\\attribute\\template\\AttributeColl</title>
<path fill="none" stroke="black" stroke-dasharray="1,5" d="M231.277,-1970.02C206.214,-1962.82 173.881,-1953.53 145.99,-1945.52"/>
<polygon fill="none" stroke="black" points="146.907,-1942.14 136.329,-1942.74 144.974,-1948.87 146.907,-1942.14"/>
</g>
<!-- \\forest\\attribute\\SoilUseColl -->
<g id="node7" class="node"><title>\\forest\\attribute\\SoilUseColl</title>
<g id="a_node7"><a xlink:href="forest.attribute.soilusecoll.html" xlink:title="SoilUseColl" target="_parent">
<polygon fill="none" stroke="black" points="319.5,-1838 228.5,-1838 228.5,-1802 319.5,-1802 319.5,-1838"/>
<text text-anchor="middle" x="274" y="-1817.2" font-family="Courier,monospace" font-size="11.00">SoilUseColl</text>
</a>
</g>
</g>
<!-- \\forest\\attribute\\SoilUseColl&#45;&gt;\\ContentColl -->
<g id="edge19" class="edge"><title>\\forest\\attribute\\SoilUseColl&#45;&gt;\\ContentColl</title>
<path fill="none" stroke="black" d="M228.345,-1807.72C221.595,-1804.02 215.421,-1799.22 211,-1793 149.859,-1706.99 148.6,-951.088 139,-846 122.377,-664.033 97.3662,-445.811 88.3716,-368.693"/>
<polygon fill="none" stroke="black" points="91.8011,-367.886 87.1636,-358.36 84.8485,-368.699 91.8011,-367.886"/>
</g>
<!-- \\forest\\attribute\\SoilUseColl&#45;&gt;\\forest\\attribute\\template\\AttributeColl -->
<g id="edge38" class="edge"><title>\\forest\\attribute\\SoilUseColl&#45;&gt;\\forest\\attribute\\template\\AttributeColl</title>
<path fill="none" stroke="black" stroke-dasharray="1,5" d="M228.218,-1835.47C222.297,-1838.05 216.411,-1840.91 211,-1844 175.57,-1864.26 173.435,-1879.09 139,-1901 136.872,-1902.35 134.667,-1903.69 132.418,-1905"/>
<polygon fill="none" stroke="black" points="130.625,-1902 123.598,-1909.93 134.036,-1908.11 130.625,-1902"/>
</g>
<!-- \\forest\\attribute\\Province -->
<g id="node8" class="node"><title>\\forest\\attribute\\Province</title>
<g id="a_node8"><a xlink:href="forest.attribute.province.html" xlink:title="Province" target="_parent">
<polygon fill="none" stroke="black" points="309.5,-1406 238.5,-1406 238.5,-1370 309.5,-1370 309.5,-1406"/>
<text text-anchor="middle" x="274" y="-1385.2" font-family="Courier,monospace" font-size="11.00">Province</text>
</a>
</g>
</g>
<!-- \\forest\\attribute\\Province&#45;&gt;\\Content -->
<g id="edge20" class="edge"><title>\\forest\\attribute\\Province&#45;&gt;\\Content</title>
<path fill="none" stroke="black" d="M238.23,-1380.34C227.839,-1376.31 217.497,-1370.21 211,-1361 76.4425,-1170.24 268.463,-507.249 139,-313 137.701,-311.051 136.218,-309.237 134.592,-307.548"/>
<polygon fill="none" stroke="black" points="136.595,-304.661 126.681,-300.925 132.101,-310.028 136.595,-304.661"/>
</g>
<!-- \\forest\\attribute\\Province&#45;&gt;\\forest\\attribute\\template\\Attribute -->
<g id="edge39" class="edge"><title>\\forest\\attribute\\Province&#45;&gt;\\forest\\attribute\\template\\Attribute</title>
<path fill="none" stroke="black" stroke-dasharray="1,5" d="M238.298,-1396.86C228.287,-1400.93 218.15,-1406.75 211,-1415 98.3298,-1545.03 85.5856,-1767.17 84.754,-1845.58"/>
<polygon fill="none" stroke="black" points="81.2538,-1845.64 84.7066,-1855.66 88.2537,-1845.68 81.2538,-1845.64"/>
</g>
<!-- \\forest\\attribute\\NoteAColl -->
<g id="node9" class="node"><title>\\forest\\attribute\\NoteAColl</title>
<g id="a_node9"><a xlink:href="forest.attribute.noteacoll.html" xlink:title="NoteAColl" target="_parent">
<polygon fill="none" stroke="black" points="312.5,-1568 235.5,-1568 235.5,-1532 312.5,-1532 312.5,-1568"/>
<text text-anchor="middle" x="274" y="-1547.2" font-family="Courier,monospace" font-size="11.00">NoteAColl</text>
</a>
</g>
</g>
<!-- \\forest\\attribute\\NoteAColl&#45;&gt;\\ContentColl -->
<g id="edge21" class="edge"><title>\\forest\\attribute\\NoteAColl&#45;&gt;\\ContentColl</title>
<path fill="none" stroke="black" d="M235.192,-1540.86C225.93,-1536.86 216.973,-1531.14 211,-1523 121.498,-1401.02 155.027,-996.442 139,-846 119.643,-664.304 96.316,-445.915 88.069,-368.723"/>
<polygon fill="none" stroke="black" points="91.5065,-367.951 86.9639,-358.38 84.5462,-368.695 91.5065,-367.951"/>
</g>
<!-- \\forest\\attribute\\NoteTemplateColl -->
<g id="node10" class="node"><title>\\forest\\attribute\\NoteTemplateColl</title>
<g id="a_node10"><a xlink:href="forest.attribute.notetemplatecoll.html" xlink:title="NoteTemplateColl" target="_parent">
<polygon fill="none" stroke="black" points="336.5,-1514 211.5,-1514 211.5,-1478 336.5,-1478 336.5,-1514"/>
<text text-anchor="middle" x="274" y="-1493.2" font-family="Courier,monospace" font-size="11.00">NoteTemplateColl</text>
</a>
</g>
</g>
<!-- \\forest\\attribute\\NoteTemplateColl&#45;&gt;\\ContentColl -->
<g id="edge22" class="edge"><title>\\forest\\attribute\\NoteTemplateColl&#45;&gt;\\ContentColl</title>
<path fill="none" stroke="black" d="M219.893,-1477.99C216.539,-1475.38 213.509,-1472.4 211,-1469 206.76,-1463.25 106.912,-542.441 88.0564,-368.252"/>
<polygon fill="none" stroke="black" points="91.5125,-367.657 86.9567,-358.092 84.5531,-368.41 91.5125,-367.657"/>
</g>
<!-- \\forest\\attribute\\ProvinceColl -->
<g id="node11" class="node"><title>\\forest\\attribute\\ProvinceColl</title>
<g id="a_node11"><a xlink:href="forest.attribute.provincecoll.html" xlink:title="ProvinceColl" target="_parent">
<polygon fill="none" stroke="black" points="323,-1784 225,-1784 225,-1748 323,-1748 323,-1784"/>
<text text-anchor="middle" x="274" y="-1763.2" font-family="Courier,monospace" font-size="11.00">ProvinceColl</text>
</a>
</g>
</g>
<!-- \\forest\\attribute\\ProvinceColl&#45;&gt;\\ContentColl -->
<g id="edge23" class="edge"><title>\\forest\\attribute\\ProvinceColl&#45;&gt;\\ContentColl</title>
<path fill="none" stroke="black" d="M224.995,-1751.73C219.574,-1748.34 214.685,-1744.16 211,-1739 153.14,-1658 148.282,-945.11 139,-846 121.961,-664.072 97.2065,-445.826 88.3256,-368.697"/>
<polygon fill="none" stroke="black" points="91.7564,-367.896 87.1332,-358.363 84.8025,-368.698 91.7564,-367.896"/>
</g>
<!-- \\forest\\attribute\\ProvinceColl&#45;&gt;\\forest\\attribute\\template\\AttributeColl -->
<g id="edge40" class="edge"><title>\\forest\\attribute\\ProvinceColl&#45;&gt;\\forest\\attribute\\template\\AttributeColl</title>
<path fill="none" stroke="black" stroke-dasharray="1,5" d="M224.964,-1783.52C220,-1786.31 215.232,-1789.46 211,-1793 166.757,-1830.02 182.248,-1862.82 139,-1901 137.846,-1902.02 136.646,-1903.01 135.411,-1903.97"/>
<polygon fill="none" stroke="black" points="133.054,-1901.35 126.823,-1909.92 137.038,-1907.1 133.054,-1901.35"/>
</g>
<!-- \\forest\\attribute\\CadastralColl -->
<g id="node12" class="node"><title>\\forest\\attribute\\CadastralColl</title>
<g id="a_node12"><a xlink:href="forest.attribute.cadastralcoll.html" xlink:title="CadastralColl" target="_parent">
<polygon fill="none" stroke="black" points="326,-1460 222,-1460 222,-1424 326,-1424 326,-1460"/>
<text text-anchor="middle" x="274" y="-1439.2" font-family="Courier,monospace" font-size="11.00">CadastralColl</text>
</a>
</g>
</g>
<!-- \\forest\\attribute\\CadastralColl&#45;&gt;\\ContentColl -->
<g id="edge24" class="edge"><title>\\forest\\attribute\\CadastralColl&#45;&gt;\\ContentColl</title>
<path fill="none" stroke="black" d="M221.908,-1425.45C217.755,-1422.51 214.008,-1419.05 211,-1415 202.911,-1404.1 106.684,-536.273 88.0968,-368.06"/>
<polygon fill="none" stroke="black" points="91.5633,-367.564 86.9865,-358.009 84.6056,-368.332 91.5633,-367.564"/>
</g>
<!-- \\forest\\attribute\\Cadastral -->
<g id="node13" class="node"><title>\\forest\\attribute\\Cadastral</title>
<g id="a_node13"><a xlink:href="forest.attribute.cadastral.html" xlink:title="Cadastral" target="_parent">
<polygon fill="none" stroke="black" points="312.5,-1244 235.5,-1244 235.5,-1208 312.5,-1208 312.5,-1244"/>
<text text-anchor="middle" x="274" y="-1223.2" font-family="Courier,monospace" font-size="11.00">Cadastral</text>
</a>
</g>
</g>
<!-- \\forest\\attribute\\Cadastral&#45;&gt;\\Content -->
<g id="edge25" class="edge"><title>\\forest\\attribute\\Cadastral&#45;&gt;\\Content</title>
<path fill="none" stroke="black" d="M235.38,-1217.1C226.003,-1213.09 216.94,-1207.31 211,-1199 96.1299,-1038.3 249.577,-476.688 139,-313 137.689,-311.059 136.196,-309.252 134.561,-307.569"/>
<polygon fill="none" stroke="black" points="136.55,-304.67 126.625,-300.962 132.071,-310.05 136.55,-304.67"/>
</g>
<!-- \\forest\\attribute\\SoilUse -->
<g id="node14" class="node"><title>\\forest\\attribute\\SoilUse</title>
<g id="a_node14"><a xlink:href="forest.attribute.soiluse.html" xlink:title="SoilUse" target="_parent">
<polygon fill="none" stroke="black" points="306,-1352 242,-1352 242,-1316 306,-1316 306,-1352"/>
<text text-anchor="middle" x="274" y="-1331.2" font-family="Courier,monospace" font-size="11.00">SoilUse</text>
</a>
</g>
</g>
<!-- \\forest\\attribute\\SoilUse&#45;&gt;\\Content -->
<g id="edge26" class="edge"><title>\\forest\\attribute\\SoilUse&#45;&gt;\\Content</title>
<path fill="none" stroke="black" d="M241.818,-1327.63C230.282,-1323.65 218.26,-1317.25 211,-1307 83.0065,-1126.26 262.166,-497.06 139,-313 137.698,-311.054 136.211,-309.241 134.583,-307.554"/>
<polygon fill="none" stroke="black" points="136.582,-304.664 126.664,-300.936 132.092,-310.035 136.582,-304.664"/>
</g>
<!-- \\forest\\attribute\\SoilUse&#45;&gt;\\forest\\attribute\\template\\Attribute -->
<g id="edge41" class="edge"><title>\\forest\\attribute\\SoilUse&#45;&gt;\\forest\\attribute\\template\\Attribute</title>
<path fill="none" stroke="black" stroke-dasharray="1,5" d="M241.707,-1341.38C230.578,-1345.46 218.87,-1351.67 211,-1361 147.179,-1436.7 101.379,-1749.67 88.604,-1845.79"/>
<polygon fill="none" stroke="black" points="85.1067,-1845.54 87.275,-1855.91 92.0472,-1846.45 85.1067,-1845.54"/>
</g>
<!-- \\forest\\attribute\\Municipality -->
<g id="node15" class="node"><title>\\forest\\attribute\\Municipality</title>
<g id="a_node15"><a xlink:href="forest.attribute.municipality.html" xlink:title="Municipality" target="_parent">
<polygon fill="none" stroke="black" points="323,-1298 225,-1298 225,-1262 323,-1262 323,-1298"/>
<text text-anchor="middle" x="274" y="-1277.2" font-family="Courier,monospace" font-size="11.00">Municipality</text>
</a>
</g>
</g>
<!-- \\forest\\attribute\\Municipality&#45;&gt;\\Content -->
<g id="edge27" class="edge"><title>\\forest\\attribute\\Municipality&#45;&gt;\\Content</title>
<path fill="none" stroke="black" d="M224.976,-1265.75C219.558,-1262.35 214.675,-1258.17 211,-1253 89.5691,-1082.28 255.871,-486.873 139,-313 137.694,-311.056 136.204,-309.246 134.573,-307.561"/>
<polygon fill="none" stroke="black" points="136.567,-304.667 126.646,-300.948 132.082,-310.042 136.567,-304.667"/>
</g>
<!-- \\forest\\attribute\\Municipality&#45;&gt;\\forest\\attribute\\template\\Attribute -->
<g id="edge42" class="edge"><title>\\forest\\attribute\\Municipality&#45;&gt;\\forest\\attribute\\template\\Attribute</title>
<path fill="none" stroke="black" stroke-dasharray="1,5" d="M224.728,-1295.32C219.56,-1298.53 214.808,-1302.38 211,-1307 141.148,-1391.74 98.9473,-1742.74 87.9116,-1845.57"/>
<polygon fill="none" stroke="black" points="84.4012,-1845.49 86.8296,-1855.8 91.3624,-1846.22 84.4012,-1845.49"/>
</g>
<!-- \\forest\\attribute\\NoteA -->
<g id="node16" class="node"><title>\\forest\\attribute\\NoteA</title>
<g id="a_node16"><a xlink:href="forest.attribute.notea.html" xlink:title="NoteA" target="_parent">
<polygon fill="none" stroke="black" points="301,-1190 247,-1190 247,-1154 301,-1154 301,-1190"/>
<text text-anchor="middle" x="274" y="-1169.2" font-family="Courier,monospace" font-size="11.00">NoteA</text>
</a>
</g>
</g>
<!-- \\forest\\attribute\\NoteA&#45;&gt;\\Content -->
<g id="edge28" class="edge"><title>\\forest\\attribute\\NoteA&#45;&gt;\\Content</title>
<path fill="none" stroke="black" d="M246.693,-1167.11C233.832,-1163.31 219.36,-1156.63 211,-1145 102.689,-994.306 243.286,-466.507 139,-313 137.684,-311.063 136.186,-309.258 134.549,-307.577"/>
<polygon fill="none" stroke="black" points="136.531,-304.674 126.602,-300.978 132.059,-310.059 136.531,-304.674"/>
</g>
<!-- \\forest\\attribute\\MunicipalityColl -->
<g id="node17" class="node"><title>\\forest\\attribute\\MunicipalityColl</title>
<g id="a_node17"><a xlink:href="forest.attribute.municipalitycoll.html" xlink:title="MunicipalityColl" target="_parent">
<polygon fill="none" stroke="black" points="336.5,-1730 211.5,-1730 211.5,-1694 336.5,-1694 336.5,-1730"/>
<text text-anchor="middle" x="274" y="-1709.2" font-family="Courier,monospace" font-size="11.00">MunicipalityColl</text>
</a>
</g>
</g>
<!-- \\forest\\attribute\\MunicipalityColl&#45;&gt;\\ContentColl -->
<g id="edge33" class="edge"><title>\\forest\\attribute\\MunicipalityColl&#45;&gt;\\ContentColl</title>
<path fill="none" stroke="black" d="M219.519,-1693.84C216.298,-1691.27 213.397,-1688.34 211,-1685 101.838,-1533.01 156.93,-1032.27 139,-846 121.492,-664.116 97.0265,-445.843 88.2737,-368.702"/>
<polygon fill="none" stroke="black" points="91.7059,-367.907 87.099,-358.366 84.7507,-368.697 91.7059,-367.907"/>
</g>
<!-- \\forest\\attribute\\MunicipalityColl&#45;&gt;\\forest\\attribute\\template\\AttributeColl -->
<g id="edge47" class="edge"><title>\\forest\\attribute\\MunicipalityColl&#45;&gt;\\forest\\attribute\\template\\AttributeColl</title>
<path fill="none" stroke="black" stroke-dasharray="1,5" d="M222.187,-1730.16C218.138,-1732.76 214.333,-1735.69 211,-1739 155.078,-1794.5 193.434,-1844.04 139,-1901 138.104,-1901.94 137.168,-1902.85 136.199,-1903.73"/>
<polygon fill="none" stroke="black" points="133.93,-1901.06 128.208,-1909.98 138.241,-1906.58 133.93,-1901.06"/>
</g>
<!-- \\forest\\attribute\\Collector -->
<g id="node18" class="node"><title>\\forest\\attribute\\Collector</title>
<g id="a_node18"><a xlink:href="forest.attribute.collector.html" xlink:title="Collector" target="_parent">
<polygon fill="none" stroke="black" points="312.5,-1622 235.5,-1622 235.5,-1586 312.5,-1586 312.5,-1622"/>
<text text-anchor="middle" x="274" y="-1601.2" font-family="Courier,monospace" font-size="11.00">Collector</text>
</a>
</g>
</g>
<!-- \\forest\\attribute\\Collector&#45;&gt;\\Content -->
<g id="edge34" class="edge"><title>\\forest\\attribute\\Collector&#45;&gt;\\Content</title>
<path fill="none" stroke="black" d="M235.248,-1595.19C225.869,-1591.18 216.839,-1585.38 211,-1577 50.1755,-1346.15 293.66,-548.021 139,-313 137.713,-311.044 136.239,-309.223 134.62,-307.53"/>
<polygon fill="none" stroke="black" points="136.637,-304.652 126.733,-300.891 132.129,-310.008 136.637,-304.652"/>
</g>
<!-- \\forest\\attribute\\Collector&#45;&gt;\\forest\\attribute\\template\\Attribute -->
<g id="edge48" class="edge"><title>\\forest\\attribute\\Collector&#45;&gt;\\forest\\attribute\\template\\Attribute</title>
<path fill="none" stroke="black" stroke-dasharray="1,5" d="M235.433,-1615.5C226.706,-1619.42 217.948,-1624.51 211,-1631 145.037,-1692.65 107.585,-1796.63 92.6555,-1846.16"/>
<polygon fill="none" stroke="black" points="89.2643,-1845.28 89.8095,-1855.86 95.9816,-1847.25 89.2643,-1845.28"/>
</g>
<!-- \\forest\\attribute\\CollectorColl -->
<g id="node19" class="node"><title>\\forest\\attribute\\CollectorColl</title>
<g id="a_node19"><a xlink:href="forest.attribute.collectorcoll.html" xlink:title="CollectorColl" target="_parent">
<polygon fill="none" stroke="black" points="326,-1676 222,-1676 222,-1640 326,-1640 326,-1676"/>
<text text-anchor="middle" x="274" y="-1655.2" font-family="Courier,monospace" font-size="11.00">CollectorColl</text>
</a>
</g>
</g>
<!-- \\forest\\attribute\\CollectorColl&#45;&gt;\\ContentColl -->
<g id="edge35" class="edge"><title>\\forest\\attribute\\CollectorColl&#45;&gt;\\ContentColl</title>
<path fill="none" stroke="black" d="M221.801,-1641.53C217.67,-1638.57 213.957,-1635.09 211,-1631 108.395,-1489.02 156.295,-1020.32 139,-846 120.96,-664.168 96.8219,-445.863 88.2147,-368.708"/>
<polygon fill="none" stroke="black" points="91.6485,-367.919 87.0601,-358.37 84.6918,-368.696 91.6485,-367.919"/>
</g>
<!-- \\forest\\attribute\\CollectorColl&#45;&gt;\\forest\\attribute\\template\\AttributeColl -->
<g id="edge49" class="edge"><title>\\forest\\attribute\\CollectorColl&#45;&gt;\\forest\\attribute\\template\\AttributeColl</title>
<path fill="none" stroke="black" stroke-dasharray="1,5" d="M221.838,-1675.83C217.863,-1678.49 214.17,-1681.53 211,-1685 142.699,-1759.67 205.302,-1824.55 139,-1901 138.279,-1901.83 137.526,-1902.64 136.745,-1903.43"/>
<polygon fill="none" stroke="black" points="134.448,-1900.79 129.07,-1909.91 138.967,-1906.13 134.448,-1900.79"/>
</g>
<!-- \\forest\\attribute\\NoteTemplate -->
<g id="node20" class="node"><title>\\forest\\attribute\\NoteTemplate</title>
<g id="a_node20"><a xlink:href="forest.attribute.notetemplate.html" xlink:title="NoteTemplate" target="_parent">
<polygon fill="none" stroke="black" points="323,-1136 225,-1136 225,-1100 323,-1100 323,-1136"/>
<text text-anchor="middle" x="274" y="-1115.2" font-family="Courier,monospace" font-size="11.00">NoteTemplate</text>
</a>
</g>
</g>
<!-- \\forest\\attribute\\NoteTemplate&#45;&gt;\\Content -->
<g id="edge36" class="edge"><title>\\forest\\attribute\\NoteTemplate&#45;&gt;\\Content</title>
<path fill="none" stroke="black" d="M224.986,-1101.35C219.566,-1097.71 214.68,-1093.31 211,-1088 13.8552,-803.747 334.295,-598.527 139,-313 137.678,-311.067 136.175,-309.266 134.533,-307.588"/>
<polygon fill="none" stroke="black" points="136.509,-304.679 126.574,-300.997 132.044,-310.071 136.509,-304.679"/>
</g>
<!-- \\forest\\form\\control\\ItemColl -->
<g id="node21" class="node"><title>\\forest\\form\\control\\ItemColl</title>
<g id="a_node21"><a xlink:href="forest.form.control.itemcoll.html" xlink:title="ItemColl" target="_parent">
<polygon fill="none" stroke="black" points="309.5,-714 238.5,-714 238.5,-678 309.5,-678 309.5,-714"/>
<text text-anchor="middle" x="274" y="-693.2" font-family="Courier,monospace" font-size="11.00">ItemColl</text>
</a>
</g>
</g>
<!-- \\forest\\form\\control\\ItemColl&#45;&gt;\\ContentColl -->
<g id="edge8" class="edge"><title>\\forest\\form\\control\\ItemColl&#45;&gt;\\ContentColl</title>
<path fill="none" stroke="black" d="M238.456,-686.567C228.57,-682.49 218.464,-676.807 211,-669 126.87,-580.999 97.3935,-430.946 88.4421,-368.537"/>
<polygon fill="none" stroke="black" points="91.8621,-367.712 87.0443,-358.276 84.9262,-368.657 91.8621,-367.712"/>
</g>
<!-- \\forest\\form\\control\\Item -->
<g id="node22" class="node"><title>\\forest\\form\\control\\Item</title>
<g id="a_node22"><a xlink:href="forest.form.control.item.html" xlink:title="Item" target="_parent">
<polygon fill="none" stroke="black" points="301,-660 247,-660 247,-624 301,-624 301,-660"/>
<text text-anchor="middle" x="274" y="-639.2" font-family="Courier,monospace" font-size="11.00">Item</text>
</a>
</g>
</g>
<!-- \\forest\\form\\control\\Item&#45;&gt;\\Content -->
<g id="edge9" class="edge"><title>\\forest\\form\\control\\Item&#45;&gt;\\Content</title>
<path fill="none" stroke="black" d="M246.837,-638.617C234.335,-635.685 220.141,-630.212 211,-620 117.531,-515.575 225.892,-422.958 139,-313 137.601,-311.229 136.055,-309.565 134.397,-308.003"/>
<polygon fill="none" stroke="black" points="136.536,-305.232 126.517,-301.785 132.2,-310.728 136.536,-305.232"/>
</g>
<!-- \\forest\\form\\template\\FormColl -->
<g id="node23" class="node"><title>\\forest\\form\\template\\FormColl</title>
<g id="a_node23"><a xlink:href="forest.form.template.formcoll.html" xlink:title="«abstract»&lt;br/&gt;FormColl" target="_parent">
<polygon fill="none" stroke="black" points="126.5,-894 41.5,-894 41.5,-858 126.5,-858 126.5,-894"/>
<text text-anchor="start" x="50" y="-879.7" font-family="Courier,monospace" font-size="11.00">«abstract»</text>
<text text-anchor="start" x="56.5" y="-868.7" font-family="Courier,monospace" font-size="11.00">FormColl</text>
</a>
</g>
</g>
<!-- \\forest\\form\\template\\FormColl&#45;&gt;\\ContentColl -->
<g id="edge15" class="edge"><title>\\forest\\form\\template\\FormColl&#45;&gt;\\ContentColl</title>
<path fill="none" stroke="black" d="M84,-857.791C84,-694.63 84,-531.468 84,-368.307"/>
<polygon fill="none" stroke="black" points="87.5001,-368.059 84,-358.059 80.5001,-368.059 87.5001,-368.059"/>
</g>
<!-- \\forest\\form\\template\\Form -->
<g id="node24" class="node"><title>\\forest\\form\\template\\Form</title>
<g id="a_node24"><a xlink:href="forest.form.template.form.html" xlink:title="«abstract»&lt;br/&gt;Form" target="_parent">
<polygon fill="none" stroke="black" points="126.5,-948 41.5,-948 41.5,-912 126.5,-912 126.5,-948"/>
<text text-anchor="start" x="50" y="-933.7" font-family="Courier,monospace" font-size="11.00">«abstract»</text>
<text text-anchor="start" x="70" y="-922.7" font-family="Courier,monospace" font-size="11.00">Form</text>
</a>
</g>
</g>
<!-- \\forest\\form\\template\\Form&#45;&gt;\\Content -->
<g id="edge16" class="edge"><title>\\forest\\form\\template\\Form&#45;&gt;\\Content</title>
<path fill="none" stroke="black" d="M126.884,-923.844C144.874,-918.909 164.111,-910.018 175,-894 210.731,-841.439 210.731,-374.561 175,-322 166.068,-308.86 151.518,-300.517 136.647,-295.218"/>
<polygon fill="none" stroke="black" points="137.473,-291.809 126.884,-292.156 135.379,-298.488 137.473,-291.809"/>
</g>
<!-- \\forest\\form\\B1Coll -->
<g id="node25" class="node"><title>\\forest\\form\\B1Coll</title>
<g id="a_node25"><a xlink:href="forest.form.b1coll.html" xlink:title="B1Coll" target="_parent">
<polygon fill="none" stroke="black" points="302.5,-894 245.5,-894 245.5,-858 302.5,-858 302.5,-894"/>
<text text-anchor="middle" x="274" y="-873.2" font-family="Courier,monospace" font-size="11.00">B1Coll</text>
</a>
</g>
</g>
<!-- \\forest\\form\\B1Coll&#45;&gt;\\forest\\form\\template\\FormColl -->
<g id="edge7" class="edge"><title>\\forest\\form\\B1Coll&#45;&gt;\\forest\\form\\template\\FormColl</title>
<path fill="none" stroke="black" d="M245.26,-876C216.813,-876 171.895,-876 136.841,-876"/>
<polygon fill="none" stroke="black" points="136.774,-872.5 126.774,-876 136.774,-879.5 136.774,-872.5"/>
</g>
<!-- \\forest\\form\\BColl -->
<g id="node26" class="node"><title>\\forest\\form\\BColl</title>
<g id="a_node26"><a xlink:href="forest.form.bcoll.html" xlink:title="BColl" target="_parent">
<polygon fill="none" stroke="black" points="301,-840 247,-840 247,-804 301,-804 301,-840"/>
<text text-anchor="middle" x="274" y="-819.2" font-family="Courier,monospace" font-size="11.00">BColl</text>
</a>
</g>
</g>
<!-- \\forest\\form\\BColl&#45;&gt;\\forest\\form\\template\\FormColl -->
<g id="edge10" class="edge"><title>\\forest\\form\\BColl&#45;&gt;\\forest\\form\\template\\FormColl</title>
<path fill="none" stroke="black" d="M246.859,-829.508C218.455,-837.667 172.349,-850.91 136.597,-861.18"/>
<polygon fill="none" stroke="black" points="135.456,-857.866 126.811,-863.991 137.388,-864.594 135.456,-857.866"/>
</g>
<!-- \\forest\\form\\AColl -->
<g id="node27" class="node"><title>\\forest\\form\\AColl</title>
<g id="a_node27"><a xlink:href="forest.form.acoll.html" xlink:title="AColl" target="_parent">
<polygon fill="none" stroke="black" points="301,-786 247,-786 247,-750 301,-750 301,-786"/>
<text text-anchor="middle" x="274" y="-765.2" font-family="Courier,monospace" font-size="11.00">AColl</text>
</a>
</g>
</g>
<!-- \\forest\\form\\AColl&#45;&gt;\\forest\\form\\template\\FormColl -->
<g id="edge11" class="edge"><title>\\forest\\form\\AColl&#45;&gt;\\forest\\form\\template\\FormColl</title>
<path fill="none" stroke="black" d="M246.921,-778.26C235.674,-782.963 222.492,-788.855 211,-795 178.588,-812.331 143.559,-835.215 118.682,-852.237"/>
<polygon fill="none" stroke="black" points="116.575,-849.439 110.328,-857.995 120.548,-855.202 116.575,-849.439"/>
</g>
<!-- \\forest\\form\\B1 -->
<g id="node28" class="node"><title>\\forest\\form\\B1</title>
<g id="a_node28"><a xlink:href="forest.form.b1.html" xlink:title="B1" target="_parent">
<polygon fill="none" stroke="black" points="301,-948 247,-948 247,-912 301,-912 301,-948"/>
<text text-anchor="middle" x="274" y="-927.2" font-family="Courier,monospace" font-size="11.00">B1</text>
</a>
</g>
</g>
<!-- \\forest\\form\\B1&#45;&gt;\\forest\\form\\template\\Form -->
<g id="edge12" class="edge"><title>\\forest\\form\\B1&#45;&gt;\\forest\\form\\template\\Form</title>
<path fill="none" stroke="black" d="M246.859,-930C218.576,-930 172.743,-930 137.056,-930"/>
<polygon fill="none" stroke="black" points="136.811,-926.5 126.811,-930 136.811,-933.5 136.811,-926.5"/>
</g>
<!-- \\forest\\form\\A -->
<g id="node29" class="node"><title>\\forest\\form\\A</title>
<g id="a_node29"><a xlink:href="forest.form.a.html" xlink:title="A" target="_parent">
<polygon fill="none" stroke="black" points="301,-1056 247,-1056 247,-1020 301,-1020 301,-1056"/>
<text text-anchor="middle" x="274" y="-1035.2" font-family="Courier,monospace" font-size="11.00">A</text>
</a>
</g>
</g>
<!-- \\forest\\form\\A&#45;&gt;\\forest\\form\\template\\Form -->
<g id="edge13" class="edge"><title>\\forest\\form\\A&#45;&gt;\\forest\\form\\template\\Form</title>
<path fill="none" stroke="black" d="M246.921,-1027.74C235.674,-1023.04 222.492,-1017.14 211,-1011 178.588,-993.669 143.559,-970.785 118.682,-953.763"/>
<polygon fill="none" stroke="black" points="120.548,-950.798 110.328,-948.005 116.575,-956.561 120.548,-950.798"/>
</g>
<!-- \\forest\\form\\B -->
<g id="node30" class="node"><title>\\forest\\form\\B</title>
<g id="a_node30"><a xlink:href="forest.form.b.html" xlink:title="B" target="_parent">
<polygon fill="none" stroke="black" points="301,-1002 247,-1002 247,-966 301,-966 301,-1002"/>
<text text-anchor="middle" x="274" y="-981.2" font-family="Courier,monospace" font-size="11.00">B</text>
</a>
</g>
</g>
<!-- \\forest\\form\\B&#45;&gt;\\forest\\form\\template\\Form -->
<g id="edge14" class="edge"><title>\\forest\\form\\B&#45;&gt;\\forest\\form\\template\\Form</title>
<path fill="none" stroke="black" d="M246.859,-976.492C218.455,-968.333 172.349,-955.09 136.597,-944.82"/>
<polygon fill="none" stroke="black" points="137.388,-941.406 126.811,-942.009 135.456,-948.134 137.388,-941.406"/>
</g>
<!-- \\forest\\Forest -->
<g id="node31" class="node"><title>\\forest\\Forest</title>
<g id="a_node31"><a xlink:href="forest.forest.html" xlink:title="Forest" target="_parent">
<polygon fill="none" stroke="black" points="302.5,-492 245.5,-492 245.5,-456 302.5,-456 302.5,-492"/>
<text text-anchor="middle" x="274" y="-471.2" font-family="Courier,monospace" font-size="11.00">Forest</text>
</a>
</g>
</g>
<!-- \\forest\\Forest&#45;&gt;\\Content -->
<g id="edge6" class="edge"><title>\\forest\\Forest&#45;&gt;\\Content</title>
<path fill="none" stroke="black" d="M245.399,-466.437C233.749,-462.189 220.673,-455.907 211,-447 161.267,-401.202 187.504,-360.098 139,-313 137.733,-311.77 136.4,-310.585 135.013,-309.445"/>
<polygon fill="none" stroke="black" points="136.758,-306.388 126.595,-303.393 132.672,-312.072 136.758,-306.388"/>
</g>
<!-- \\forest\\Region -->
<g id="node32" class="node"><title>\\forest\\Region</title>
<g id="a_node32"><a xlink:href="forest.region.html" xlink:title="Region" target="_parent">
<polygon fill="none" stroke="black" points="302.5,-438 245.5,-438 245.5,-402 302.5,-402 302.5,-438"/>
<text text-anchor="middle" x="274" y="-417.2" font-family="Courier,monospace" font-size="11.00">Region</text>
</a>
</g>
</g>
<!-- \\forest\\Region&#45;&gt;\\Content -->
<g id="edge17" class="edge"><title>\\forest\\Region&#45;&gt;\\Content</title>
<path fill="none" stroke="black" d="M245.22,-409.192C234.058,-404.194 221.399,-397.658 211,-390 173.275,-362.216 176.544,-341.029 139,-313 137.394,-311.801 135.726,-310.63 134.015,-309.49"/>
<polygon fill="none" stroke="black" points="135.536,-306.317 125.184,-304.06 131.869,-312.28 135.536,-306.317"/>
</g>
<!-- \\forest\\ForestColl -->
<g id="node33" class="node"><title>\\forest\\ForestColl</title>
<g id="a_node33"><a xlink:href="forest.forestcoll.html" xlink:title="ForestColl" target="_parent">
<polygon fill="none" stroke="black" points="316,-600 232,-600 232,-564 316,-564 316,-600"/>
<text text-anchor="middle" x="274" y="-579.2" font-family="Courier,monospace" font-size="11.00">ForestColl</text>
</a>
</g>
</g>
<!-- \\forest\\ForestColl&#45;&gt;\\ContentColl -->
<g id="edge18" class="edge"><title>\\forest\\ForestColl&#45;&gt;\\ContentColl</title>
<path fill="none" stroke="black" d="M231.784,-568.433C224.357,-564.816 217.06,-560.376 211,-555 150.825,-501.612 111.593,-412.357 94.6255,-367.5"/>
<polygon fill="none" stroke="black" points="97.9082,-366.286 91.1584,-358.119 91.3423,-368.713 97.9082,-366.286"/>
</g>
<!-- \\forest\\RegionColl -->
<g id="node34" class="node"><title>\\forest\\RegionColl</title>
<g id="a_node34"><a xlink:href="forest.regioncoll.html" xlink:title="RegionColl" target="_parent">
<polygon fill="none" stroke="black" points="316,-546 232,-546 232,-510 316,-510 316,-546"/>
<text text-anchor="middle" x="274" y="-525.2" font-family="Courier,monospace" font-size="11.00">RegionColl</text>
</a>
</g>
</g>
<!-- \\forest\\RegionColl&#45;&gt;\\ContentColl -->
<g id="edge37" class="edge"><title>\\forest\\RegionColl&#45;&gt;\\ContentColl</title>
<path fill="none" stroke="black" d="M231.689,-513.453C224.431,-509.959 217.22,-505.815 211,-501 161.918,-463.007 121.097,-401.793 100.154,-366.812"/>
<polygon fill="none" stroke="black" points="103.113,-364.939 95.0238,-358.097 97.0808,-368.491 103.113,-364.939"/>
</g>
<!-- \\FormErrors -->
<g id="node35" class="node"><title>\\FormErrors</title>
<g id="a_node35"><a xlink:href="core.formerrors.html" xlink:title="FormErrors" target="_parent">
<polygon fill="none" stroke="black" points="316,-358 232,-358 232,-322 316,-322 316,-358"/>
<text text-anchor="middle" x="274" y="-337.2" font-family="Courier,monospace" font-size="11.00">FormErrors</text>
</a>
</g>
</g>
<!-- \\Template -->
<g id="node37" class="node"><title>\\Template</title>
<g id="a_node37"><a xlink:href="core.template.html" xlink:title="Template" target="_parent">
<polygon fill="none" stroke="black" points="309.5,-88 238.5,-88 238.5,-52 309.5,-52 309.5,-88"/>
<text text-anchor="middle" x="274" y="-67.2" font-family="Courier,monospace" font-size="11.00">Template</text>
</a>
</g>
</g>
<!-- \\Zend_View -->
<g id="node43" class="node"><title>\\Zend_View</title>
<ellipse fill="none" stroke="black" cx="84" cy="-18" rx="54.6905" ry="18"/>
<text text-anchor="middle" x="84" y="-14.3" font-family="Times,serif" font-size="14.00" fill="gray">\Zend_View</text>
</g>
<!-- \\Template&#45;&gt;\\Zend_View -->
<g id="edge1" class="edge"><title>\\Template&#45;&gt;\\Zend_View</title>
<path fill="none" stroke="black" d="M238.079,-60.3411C209.402,-52.409 168.387,-41.0646 136.029,-32.1145"/>
<polygon fill="none" stroke="black" points="136.859,-28.7128 126.288,-29.4202 134.993,-35.4594 136.859,-28.7128"/>
</g>
<!-- \\User -->
<g id="node38" class="node"><title>\\User</title>
<g id="a_node38"><a xlink:href="core.user.html" xlink:title="User" target="_parent">
<polygon fill="none" stroke="black" points="301,-250 247,-250 247,-214 301,-214 301,-250"/>
<text text-anchor="middle" x="274" y="-229.2" font-family="Courier,monospace" font-size="11.00">User</text>
</a>
</g>
</g>
<!-- \\User&#45;&gt;\\Content -->
<g id="edge2" class="edge"><title>\\User&#45;&gt;\\Content</title>
<path fill="none" stroke="black" d="M246.859,-239.508C218.455,-247.667 172.349,-260.91 136.597,-271.18"/>
<polygon fill="none" stroke="black" points="135.456,-267.866 126.811,-273.991 137.388,-274.594 135.456,-267.866"/>
</g>
<!-- \\Profile -->
<g id="node39" class="node"><title>\\Profile</title>
<g id="a_node39"><a xlink:href="core.profile.html" xlink:title="Profile" target="_parent">
<polygon fill="none" stroke="black" points="306,-196 242,-196 242,-160 306,-160 306,-196"/>
<text text-anchor="middle" x="274" y="-175.2" font-family="Courier,monospace" font-size="11.00">Profile</text>
</a>
</g>
</g>
<!-- \\Profile&#45;&gt;\\Content -->
<g id="edge3" class="edge"><title>\\Profile&#45;&gt;\\Content</title>
<path fill="none" stroke="black" d="M241.948,-190.365C231.909,-194.667 220.835,-199.741 211,-205 178.588,-222.331 143.559,-245.215 118.682,-262.237"/>
<polygon fill="none" stroke="black" points="116.575,-259.439 110.328,-267.995 120.548,-265.202 116.575,-259.439"/>
</g>
<!-- \\UserColl -->
<g id="node40" class="node"><title>\\UserColl</title>
<g id="a_node40"><a xlink:href="core.usercoll.html" xlink:title="UserColl" target="_parent">
<polygon fill="none" stroke="black" points="309.5,-304 238.5,-304 238.5,-268 309.5,-268 309.5,-304"/>
<text text-anchor="middle" x="274" y="-283.2" font-family="Courier,monospace" font-size="11.00">UserColl</text>
</a>
</g>
</g>
<!-- \\UserColl&#45;&gt;\\ContentColl -->
<g id="edge4" class="edge"><title>\\UserColl&#45;&gt;\\ContentColl</title>
<path fill="none" stroke="black" d="M238.079,-296.03C210.579,-303.929 171.735,-315.087 140.058,-324.185"/>
<polygon fill="none" stroke="black" points="138.694,-320.936 130.048,-327.061 140.626,-327.664 138.694,-320.936"/>
</g>
<!-- \\Log -->
<g id="node42" class="node"><title>\\Log</title>
<g id="a_node42"><a xlink:href="core.log.html" xlink:title="Log" target="_parent">
<polygon fill="none" stroke="black" points="301,-142 247,-142 247,-106 301,-106 301,-142"/>
<text text-anchor="middle" x="274" y="-121.2" font-family="Courier,monospace" font-size="11.00">Log</text>
</a>
</g>
</g>
<!-- \\Log&#45;&gt;\\Content -->
<g id="edge5" class="edge"><title>\\Log&#45;&gt;\\Content</title>
<path fill="none" stroke="black" d="M246.717,-132.694C235.183,-137.185 221.833,-143.343 211,-151 167.395,-181.821 127.194,-229.683 104.426,-259.365"/>
<polygon fill="none" stroke="black" points="101.446,-257.502 98.2063,-267.589 107.03,-261.724 101.446,-257.502"/>
</g>
</g>
</svg>
